<svg xmlns="http://www.w3.org/2000/svg" width="67.419" height="16" viewBox="0 0 67.419 16" fill="none">
  <path d="M 8.427 14.703 C 5.949 14.703 4.251 13.321 3.452 11.194 C 3.035 10.084 2.831 8.905 2.85 7.719 C 2.85 4.151 4.444 1.678 7.978 1.678 C 10.357 1.678 11.818 2.715 12.657 5.183 L 13.674 5.183 L 13.535 1.777 C 12.114 0.859 10.337 0.39 8.17 0.39 C 5.13 0.39 2.539 1.757 1.093 4.21 C 0.348 5.511 -0.029 6.991 0.002 8.489 C 0.002 11.219 1.285 13.632 3.704 14.98 C 5.029 15.688 6.515 16.038 8.017 15.997 C 10.377 15.997 12.247 15.548 13.906 14.763 L 14.335 11.002 L 13.299 11.002 C 12.677 12.719 11.936 13.751 10.707 14.299 C 10.105 14.57 9.345 14.708 8.427 14.708 L 8.427 14.703 Z M 19.113 1.673 L 19.212 0 L 18.511 0 L 15.386 0.938 L 15.386 1.441 L 16.768 2.083 L 16.768 13.825 C 16.768 14.625 16.364 14.802 15.288 14.935 L 15.288 15.794 L 20.594 15.794 L 20.594 14.935 C 19.522 14.802 19.113 14.625 19.113 13.825 L 19.113 1.678 L 19.113 1.673 Z M 40.213 15.987 L 40.623 15.987 L 44.211 15.306 L 44.211 14.427 L 43.703 14.393 C 42.863 14.314 42.651 14.136 42.651 13.455 L 42.651 7.196 L 42.75 5.187 L 42.182 5.187 L 38.792 5.676 L 38.792 6.53 L 39.122 6.589 C 40.035 6.727 40.307 6.984 40.307 7.626 L 40.307 13.203 C 39.438 13.884 38.599 14.314 37.607 14.314 C 36.491 14.314 35.81 13.746 35.81 12.438 L 35.81 7.196 L 35.909 5.187 L 35.322 5.187 L 31.931 5.676 L 31.931 6.53 L 32.281 6.589 C 33.199 6.727 33.471 6.984 33.471 7.626 L 33.471 12.774 C 33.471 14.955 34.7 15.992 36.669 15.992 C 38.17 15.992 39.399 15.192 40.317 14.077 L 40.218 15.992 L 40.213 15.987 Z M 30.342 9.047 C 30.342 6.258 28.861 5.187 26.196 5.187 C 23.831 5.187 22.114 6.16 22.114 7.779 C 22.114 8.272 22.291 8.638 22.642 8.889 L 24.438 8.657 C 24.359 8.114 24.32 7.779 24.32 7.645 C 24.32 6.727 24.809 6.263 25.801 6.263 C 27.267 6.263 28.007 7.295 28.007 8.948 L 28.007 9.496 L 24.3 10.607 C 23.071 10.938 22.37 11.234 21.901 11.915 C 21.651 12.331 21.529 12.812 21.551 13.297 C 21.551 14.876 22.642 15.992 24.498 15.992 C 25.84 15.992 27.03 15.385 28.066 14.235 C 28.436 15.385 29.004 15.992 30.016 15.992 C 30.835 15.992 31.576 15.656 32.237 15.014 L 32.039 14.333 C 31.748 14.412 31.477 14.447 31.186 14.447 C 30.618 14.447 30.347 14.003 30.347 13.124 L 30.347 9.047 L 30.342 9.047 Z M 25.603 14.412 C 24.591 14.412 23.97 13.825 23.97 12.793 C 23.97 12.088 24.3 11.678 25.006 11.446 L 28.007 10.488 L 28.007 13.376 C 27.049 14.096 26.487 14.412 25.608 14.412 L 25.603 14.412 Z M 56.846 15.306 L 56.846 14.427 L 56.343 14.393 C 55.504 14.314 55.287 14.136 55.287 13.455 L 55.287 1.678 L 55.385 0 L 54.685 0 L 51.565 0.938 L 51.565 1.441 L 52.947 2.083 L 52.947 5.948 C 52.169 5.414 51.239 5.148 50.297 5.187 C 47.197 5.187 44.779 7.547 44.779 11.076 C 44.779 13.983 46.511 15.992 49.379 15.992 C 50.859 15.992 52.148 15.266 52.947 14.156 L 52.848 15.992 L 53.258 15.992 L 56.846 15.306 Z M 50.356 6.357 C 51.837 6.357 52.947 7.216 52.947 8.795 L 52.947 13.238 C 52.61 13.574 52.208 13.839 51.767 14.017 C 51.325 14.195 50.852 14.282 50.376 14.274 C 48.248 14.274 47.177 12.596 47.177 10.355 C 47.177 7.838 48.401 6.357 50.356 6.357 Z M 64.433 8.578 C 64.161 7.275 63.362 6.53 62.251 6.53 C 60.593 6.53 59.438 7.779 59.438 9.575 C 59.438 12.226 60.844 13.943 63.11 13.943 C 63.852 13.935 64.578 13.732 65.217 13.356 C 65.857 12.979 66.386 12.441 66.752 11.796 L 67.419 11.974 C 67.123 14.274 65.04 15.992 62.483 15.992 C 59.482 15.992 57.414 13.771 57.414 10.612 C 57.414 7.428 59.655 5.183 62.661 5.183 C 64.901 5.183 66.481 6.53 66.989 8.874 L 59.171 11.268 L 59.171 10.217 L 64.433 8.578 Z" fill="currentColor" fill-rule="nonzero"></path>
</svg>