<svg xmlns="http://www.w3.org/2000/svg" width="148" height="148" viewBox="0 0 148 148" fill="none"><metadata><rdf:RDF xmlns:rdf="http://www.w3.org/1999/02/22-rdf-syntax-ns#" xmlns:dc="http://purl.org/dc/elements/1.1/"><rdf:Description><dc:creator>RealFaviconGenerator</dc:creator><dc:source>https://realfavicongenerator.net</dc:source></rdf:Description></rdf:RDF></metadata><rect width="148" height="148" rx="16" fill="white"></rect><path d="M125.671 24.0624L108.392 14.0878C108.19 13.9707 107.937 13.9707 107.734 14.0878L21.329 63.9569C21.1264 64.074 21 64.2911 21 64.5266V84.4731C21 84.7087 21.1264 84.9258 21.329 85.0429L107.734 134.912C107.836 134.971 107.95 135 108.063 135C108.176 135 108.291 134.971 108.392 134.912L125.671 124.937C125.874 124.82 126 124.603 126 124.368V24.6321C126 24.3979 125.875 24.1808 125.671 24.0624ZM90.1239 65.6672V83.3337L74.8168 74.5024L90.1239 65.6672ZM56.0575 64.2424C56.0298 64.2582 56.0272 64.2884 56.0061 64.3095C55.9838 64.3306 55.9522 64.3358 55.9364 64.3621C55.9285 64.3766 55.9364 64.3924 55.9298 64.4069C55.914 64.4463 55.9153 64.4832 55.914 64.5266C55.9153 64.57 55.914 64.6069 55.9298 64.6463C55.9364 64.6608 55.9285 64.6766 55.9364 64.6911C55.9653 64.7411 56.0075 64.7791 56.0548 64.8067L56.0575 64.8108L56.0601 64.8121L72.8426 74.4999C72.8426 74.7354 72.9689 74.9525 73.1716 75.0696L90.4529 85.0402V103.849L22.6452 64.7174L108.063 15.4167L124.355 24.8229L56.0575 64.2424ZM91.111 123.798V104.421V85.0415C91.3137 84.9244 91.44 84.7073 91.44 84.4718V64.5279L107.736 55.1257V133.392L91.111 123.798Z" fill="#FF6C3C"></path></svg>